<svg xmlns="http://www.w3.org/2000/svg" width="16" height="12" fill="currentColor" style=""><rect id="backgroundrect" width="100%" height="100%" x="0" y="0" fill="none" stroke="none"/>
  
<g class="currentLayer" style=""><title>Layer 1</title><path fill-rule="evenodd" d="M11,12 s1,0 1,-1 s-1,-4 -6,-4 s-6,3 -6,4 s1,1 1,1 h10 zm-9.995,-0.9440000000000002 v-0.002000000000000001 v0.002000000000000001 zM1.022,11 h9.956 a0.274,0.274 0 0 0 0.014000000000000004,-0.002000000000000001 l0.008000000000000004,-0.002000000000000001 c-0.0010000000000000005,-0.24600000000000005 -0.15400000000000005,-0.986 -0.8320000000000002,-1.6640000000000001 C9.516,8.68 8.289,8 6,8 c-2.29,0 -3.516,0.6800000000000004 -4.168,1.332 c-0.6780000000000004,0.6780000000000004 -0.8300000000000002,1.4180000000000001 -0.8320000000000002,1.6640000000000001 a1.05,1.05 0 0 0 0.022000000000000013,0.004000000000000002 zm9.974,0.056000000000000015 v-0.002000000000000001 v0.002000000000000001 zM6,5 a2,2 0 1 0 0,-4 a2,2 0 0 0 0,4 zm3,-2 a3,3 0 1 1 -6,0 a3,3 0 0 1 6,0 zm6.854,0.14600000000000005 a0.5,0.5 0 0 1 0,0.7080000000000002 l-3,3 a0.5,0.5 0 0 1 -0.7080000000000002,0 l-1.5,-1.5 a0.5,0.5 0 0 1 0.7080000000000002,-0.7080000000000002 L12.5,5.793 l2.646,-2.6470000000000002 a0.5,0.5 0 0 1 0.7080000000000002,0 z" clip-rule="evenodd" id="svg_1" class="selected" fill="#ffffff" fill-opacity="1"/></g></svg>